
<svg xmlns="http://www.w3.org/2000/svg" viewBox="0 0 37 36">
  <g fill="none">
    <path fill="#1E2537" d="M15.522 0c8.56 0 15.562 6.914 15.562 15.418 0 3.497-1.2 6.716-3.16 9.3l6.76 6.715c1 .993 1 2.583 0 3.576-.48.517-1.16.755-1.8.755-.64 0-1.32-.278-1.8-.755l-6.801-6.755-.05-.05-.03-.03a15.536 15.536 0 01-8.681 2.663C6.96 30.837 0 23.922 0 15.418 0 6.914 6.96 0 15.522 0zm-.006.992C7.48.992.966 7.446.966 15.407c0 7.962 6.514 14.416 14.55 14.416 8.035 0 14.549-6.454 14.549-14.416 0-7.961-6.514-14.415-14.55-14.415z"/>
    <path fill="#FFF" d="M18.915 21.479c-.87.864-2.272 1.03-3.45 1.03-1.175 0-2.578-.166-3.447-1.03m9.558-13.673l-4.407-1.03-1.712 5.188 1.712-5.189m7.943 1.385c0 .953-.778 1.726-1.738 1.726s-1.737-.773-1.737-1.726a1.733 1.733 0 011.737-1.688c.945 0 1.716.75 1.738 1.688zM5.568 17.494a2.186 2.186 0 01.13-4.063 2.213 2.213 0 012.442.65m14.616.044a2.213 2.213 0 012.45-.702 2.19 2.19 0 011.477 2.066c0 .903-.559 1.714-1.406 2.041"/>
    <path fill="#1E2537" d="M15.418 25.404c-5.743 0-10.416-3.097-10.416-6.904 0-.263.022-.523.066-.779a2.616 2.616 0 01-1.254-2.232 2.634 2.634 0 012.639-2.622c.65 0 1.27.237 1.749.659 1.807-1.152 4.237-1.877 6.918-1.927l1.76-5.336.384.09.009.003 4.102.959a2.176 2.176 0 012-1.313 2.168 2.168 0 012.172 2.158 2.168 2.168 0 01-2.173 2.159 2.17 2.17 0 01-2.173-2.156l-3.742-.875-1.426 4.32c2.584.1 4.917.827 6.658 1.954a2.64 2.64 0 011.79-.694 2.632 2.632 0 012.638 2.621 2.6 2.6 0 01-1.34 2.284c.037.24.057.481.057.727-.001 3.807-4.674 6.904-10.418 6.904zM5.96 17.682a3.88 3.88 0 00-.087.818c0 3.33 4.282 6.039 9.545 6.039 5.264 0 9.546-2.71 9.546-6.039a3.84 3.84 0 00-.08-.781.429.429 0 01-.043-.189c-.292-1.136-1.086-2.167-2.234-2.999a.425.425 0 01-.187-.131c-1.744-1.192-4.237-1.939-7.002-1.939-2.736 0-5.208.733-6.95 1.904a.426.426 0 01-.175.12c-1.172.832-1.987 1.87-2.29 3.017a.413.413 0 01-.036.166l-.007.014zm17.46-3.598c1.009.802 1.75 1.757 2.129 2.806.442-.331.701-.85.699-1.401a1.764 1.764 0 00-1.769-1.756 1.767 1.767 0 00-1.06.35zm-16.968-.351c-.976 0-1.767.786-1.768 1.756 0 .525.235 1.012.625 1.34.392-1.04 1.14-1.987 2.154-2.782a1.78 1.78 0 00-1.011-.314zm16.92-6.867c-.717 0-1.301.58-1.301 1.294 0 .713.584 1.293 1.302 1.293.717 0 1.302-.58 1.302-1.293s-.584-1.294-1.302-1.294zm-7.907 16.076c-1.744 0-2.973-.379-3.756-1.157a.43.43 0 010-.612.438.438 0 01.616 0c.612.608 1.638.904 3.14.904 1.5 0 2.528-.296 3.14-.904a.437.437 0 01.729.194.431.431 0 01-.113.418c-.784.778-2.012 1.157-3.756 1.157z"/>
    <path fill="#FF4500" d="M18.997 15.623c-.888 0-1.633.738-1.633 1.62 0 .88.745 1.595 1.633 1.595a1.6 1.6 0 001.605-1.595c0-.882-.719-1.62-1.605-1.62zm-7.036 0c-.886 0-1.63.74-1.63 1.62 0 .88.743 1.595 1.63 1.595.887 0 1.606-.715 1.606-1.595s-.72-1.62-1.606-1.62z"/>
  </g>
</svg>
