<svg xmlns="http://www.w3.org/2000/svg" width="37" height="36" viewBox="0 0 37 36">
    <g fill="none">
        <path fill="#1E2537" d="M15.522 0c8.56 0 15.562 6.914 15.562 15.418 0 3.497-1.2 6.716-3.16 9.3l6.76 6.715c1 .993 1 2.583 0 3.576-.48.517-1.16.755-1.8.755-.64 0-1.32-.278-1.8-.755l-6.801-6.755-.05-.05-.03-.03c-2.48 1.67-5.48 2.663-8.681 2.663C6.96 30.837 0 23.922 0 15.418 0 6.914 6.96 0 15.522 0zm-.006.992C7.48.992.966 7.446.966 15.407c0 7.962 6.514 14.416 14.55 14.416 8.035 0 14.549-6.454 14.549-14.416 0-7.961-6.514-14.415-14.55-14.415z"/>
        <g>
            <path fill="#FFF" d="M15.227 15.875c-.87.864-2.272 1.03-3.45 1.03-1.175 0-2.578-.166-3.447-1.03m9.558-13.673l-4.407-1.03-1.712 5.188 1.712-5.189m7.943 1.385c0 .953-.778 1.726-1.738 1.726s-1.737-.773-1.737-1.726c.021-.938.793-1.688 1.737-1.688.945 0 1.716.75 1.738 1.688zM1.88 11.89C1.079 11.54.56 10.754.562 9.885c0-.92.578-1.742 1.448-2.058.87-.315 1.847-.055 2.442.65m14.616.044c.584-.727 1.567-1.009 2.45-.702.885.307 1.477 1.136 1.477 2.066 0 .903-.559 1.714-1.406 2.041" transform="translate(3.688 5.604)"/>
            <path fill="#1E2537" d="M11.73 19.8c-5.743 0-10.416-3.097-10.416-6.904 0-.263.022-.523.066-.779C.6 11.64.126 10.795.126 9.885c.002-1.447 1.182-2.62 2.639-2.622.65 0 1.27.237 1.749.659 1.807-1.152 4.237-1.877 6.918-1.927l1.76-5.336.384.09.009.003 4.102.959c.342-.796 1.128-1.312 2-1.313 1.199.001 2.17.967 2.172 2.158-.001 1.192-.973 2.157-2.173 2.159-1.198-.002-2.17-.966-2.173-2.156l-3.742-.875-1.426 4.32c2.584.1 4.917.827 6.658 1.954.487-.447 1.126-.695 1.79-.694 1.456.002 2.637 1.174 2.638 2.621.005.947-.509 1.822-1.34 2.284.037.24.057.481.057.727-.001 3.807-4.674 6.904-10.418 6.904zm-9.458-7.722c-.058.269-.087.543-.087.818 0 3.33 4.282 6.039 9.545 6.039 5.264 0 9.546-2.71 9.546-6.039 0-.265-.027-.525-.08-.781-.029-.06-.043-.123-.043-.189-.292-1.136-1.086-2.167-2.234-2.999-.073-.026-.138-.071-.187-.131-1.744-1.192-4.237-1.939-7.002-1.939-2.736 0-5.208.733-6.95 1.904-.047.054-.107.095-.175.12-1.172.832-1.987 1.87-2.29 3.017 0 .057-.013.114-.036.166l-.007.014zm17.46-3.598c1.009.802 1.75 1.757 2.129 2.806.442-.331.701-.85.699-1.401-.001-.97-.793-1.756-1.769-1.756-.382-.001-.754.122-1.06.35zM2.764 8.129c-.976 0-1.767.786-1.768 1.756 0 .525.235 1.012.625 1.34.392-1.04 1.14-1.987 2.154-2.782-.297-.205-.65-.314-1.011-.314zm16.92-6.867c-.717 0-1.301.58-1.301 1.294 0 .713.584 1.293 1.302 1.293.717 0 1.302-.58 1.302-1.293s-.584-1.294-1.302-1.294zm-7.907 16.076c-1.744 0-2.973-.379-3.756-1.157-.17-.17-.17-.443 0-.612.17-.169.446-.169.616 0 .612.608 1.638.904 3.14.904 1.5 0 2.528-.296 3.14-.904.11-.11.271-.152.421-.112.15.04.268.157.308.306.04.15-.003.309-.113.418-.784.778-2.012 1.157-3.756 1.157z" transform="translate(3.688 5.604)"/>
            <path fill="#FF4500" d="M15.309 10.019c-.888 0-1.633.738-1.633 1.62 0 .88.745 1.595 1.633 1.595.887 0 1.605-.714 1.605-1.595 0-.882-.719-1.62-1.605-1.62zm-7.036 0c-.886 0-1.63.74-1.63 1.62 0 .88.743 1.595 1.63 1.595.887 0 1.606-.715 1.606-1.595s-.72-1.62-1.606-1.62z" transform="translate(3.688 5.604)"/>
        </g>
    </g>
</svg>
