<svg xmlns="http://www.w3.org/2000/svg" viewBox="0 0 1117 333">
  <defs>
    <linearGradient id="a" x1="50%" x2="50%" y1="0%" y2="100%">
      <stop offset="0%" stop-color="#FEFEFE"/>
      <stop offset="100%" stop-color="#E9E9E9"/>
    </linearGradient>
  </defs>
  <g fill="none" fill-rule="evenodd">
    <path fill="#1E2537" d="M1 293h154v40H1z"/>
    <text fill="#FFF" font-family="Montserrat-SemiBold, Montserrat" font-size="15" font-weight="500" transform="translate(1 293)">
      <tspan x="43" y="29.5">Saturday</tspan>
    </text>
    <path fill="#1E2537" d="M1 253h154v40H1z"/>
    <text fill="#FFF" font-family="Montserrat-SemiBold, Montserrat" font-size="15" font-weight="500" transform="translate(1 253)">
      <tspan x="53.5" y="29.5">Friday</tspan>
    </text>
    <path fill="#1E2537" d="M1 213h154v40H1z"/>
    <text fill="#FFF" font-family="Montserrat-SemiBold, Montserrat" font-size="15" font-weight="500" transform="translate(1 213)">
      <tspan x="42" y="29.5">Thursday</tspan>
    </text>
    <path fill="#1E2537" d="M1 173h154v40H1z"/>
    <text fill="#FFF" font-family="Montserrat-SemiBold, Montserrat" font-size="15" font-weight="500" transform="translate(1 173)">
      <tspan x="31.5" y="29.5">Wednesday</tspan>
    </text>
    <g>
      <path fill="#1E2537" d="M1 133h154v40H1z"/>
      <text fill="#FFF" font-family="Montserrat-SemiBold, Montserrat" font-size="15" font-weight="500" transform="translate(1 133)">
        <tspan x="45.5" y="29.5">Tuesday</tspan>
      </text>
    </g>
    <g>
      <path fill="#1E2537" d="M1 93h154v40H1z"/>
      <text fill="#FFF" font-family="Montserrat-SemiBold, Montserrat" font-size="15" font-weight="500" transform="translate(1 93)">
        <tspan x="46.5" y="29.5">Monday</tspan>
      </text>
    </g>
    <path fill="#1E2537" d="M1 53h154v40H1z"/>
    <text fill="#FFF" font-family="Montserrat-SemiBold, Montserrat" font-size="15" font-weight="500" transform="translate(1 53)">
      <tspan x="48.5" y="29.5">Sunday</tspan>
    </text>
    <g>
      <path fill="url(#a)" stroke="#F3F3F3" d="M0 0h960v52H0z" transform="translate(155 1)"/>
      <g fill="#787878" font-family="Montserrat-SemiBold, Montserrat" font-size="14" font-weight="500">
        <text transform="translate(171 18)">
          <tspan x="0" y="14">12:00am</tspan>
        </text>
        <text transform="translate(171 18)">
          <tspan x="871" y="14">10:00pm</tspan>
        </text>
        <text transform="translate(171 18)">
          <tspan x="793" y="14">8:00pm</tspan>
        </text>
        <text transform="translate(171 18)">
          <tspan x="715" y="14">6:00pm</tspan>
        </text>
        <text transform="translate(171 18)">
          <tspan x="637" y="14">4:00pm</tspan>
        </text>
        <text transform="translate(171 18)">
          <tspan x="559" y="14">2:00pm</tspan>
        </text>
        <text transform="translate(171 18)">
          <tspan x="476" y="14">12:00pm</tspan>
        </text>
        <text transform="translate(171 18)">
          <tspan x="393" y="14">10:00am</tspan>
        </text>
        <text transform="translate(171 18)">
          <tspan x="315" y="14">8:00am</tspan>
        </text>
        <text transform="translate(171 18)">
          <tspan x="237" y="14">6:00am</tspan>
        </text>
        <text transform="translate(171 18)">
          <tspan x="160" y="14">4:00am</tspan>
        </text>
        <text transform="translate(171 18)">
          <tspan x="82" y="14">2:00am</tspan>
        </text>
      </g>
    </g>
    <g>
      <path fill="#A9D194" d="M155 53h40v40h-40z"/>
      <text fill="#FFF" font-family="Montserrat-Bold, Montserrat" font-size="14" font-weight="bold" transform="translate(155 53)">
        <tspan x="3.522" y="7.936">2</tspan>
      </text>
      <path fill="#A9D194" d="M235 53h40v40h-40z"/>
      <text fill="#FFF" font-family="Montserrat-Bold, Montserrat" font-size="14" font-weight="bold" transform="translate(235 53)">
        <tspan x="4.908" y="7.936">1</tspan>
      </text>
      <path fill="#A9D194" d="M315 53h40v40h-40z"/>
      <text fill="#FFF" font-family="Montserrat-Bold, Montserrat" font-size="14" font-weight="bold" transform="translate(315 53)">
        <tspan x="4.908" y="7.936">1</tspan>
      </text>
      <path fill="#A9D194" d="M435 53h40v40h-40z"/>
      <text fill="#FFF" font-family="Montserrat-Bold, Montserrat" font-size="14" font-weight="bold" transform="translate(435 53)">
        <tspan x="4.908" y="7.936">1</tspan>
      </text>
      <path fill="#A9D194" d="M475 53h40v40h-40z"/>
      <text fill="#FFF" font-family="Montserrat-Bold, Montserrat" font-size="14" font-weight="bold" transform="translate(475 53)">
        <tspan x="4.908" y="7.936">1</tspan>
      </text>
      <path fill="#A9D194" d="M635 53h40v40h-40z"/>
      <text fill="#FFF" font-family="Montserrat-Bold, Montserrat" font-size="14" font-weight="bold" transform="translate(635 53)">
        <tspan x="4.908" y="7.936">1</tspan>
      </text>
      <path fill="#A9D194" d="M915 53h40v40h-40z"/>
      <text fill="#FFF" font-family="Montserrat-Bold, Montserrat" font-size="14" font-weight="bold" transform="translate(915 53)">
        <tspan x="3.522" y="7.936">2</tspan>
      </text>
      <path fill="#A0CE93" d="M875 53h40v40h-40z"/>
      <text fill="#FFF" font-family="Montserrat-Bold, Montserrat" font-size="14" font-weight="bold" transform="translate(875 53)">
        <tspan x="3.508" y="7.936">3</tspan>
      </text>
      <path fill="#A0CE93" d="M1075 53h40v40h-40z"/>
      <text fill="#FFF" font-family="Montserrat-Bold, Montserrat" font-size="14" font-weight="bold" transform="translate(1075 53)">
        <tspan x="3.508" y="7.936">3</tspan>
      </text>
      <path fill="#A9D194" d="M595 53h40v40h-40z"/>
      <text fill="#FFF" font-family="Montserrat-Bold, Montserrat" font-size="14" font-weight="bold" transform="translate(595 53)">
        <tspan x="3.522" y="7.936">2</tspan>
      </text>
      <path fill="#A9D194" d="M555 53h40v40h-40z"/>
      <text fill="#FFF" font-family="Montserrat-Bold, Montserrat" font-size="14" font-weight="bold" transform="translate(555 53)">
        <tspan x="3.522" y="7.936">2</tspan>
      </text>
      <path fill="#A0CE93" d="M275 53h40v40h-40z"/>
      <text fill="#FFF" font-family="Montserrat-Bold, Montserrat" font-size="14" font-weight="bold" transform="translate(275 53)">
        <tspan x="3.508" y="7.936">3</tspan>
      </text>
      <path fill="#99CE94" d="M355 53h40v40h-40z"/>
      <text fill="#FFF" font-family="Montserrat-Bold, Montserrat" font-size="14" font-weight="bold" transform="translate(355 53)">
        <tspan x="2.829" y="7.936">4</tspan>
      </text>
      <path fill="#99CE94" d="M515 53h40v40h-40z"/>
      <text fill="#FFF" font-family="Montserrat-Bold, Montserrat" font-size="14" font-weight="bold" transform="translate(515 53)">
        <tspan x="2.829" y="7.936">4</tspan>
      </text>
      <path fill="#8CC894" d="M675 53h40v40h-40z"/>
      <text fill="#FFF" font-family="Montserrat-Bold, Montserrat" font-size="14" font-weight="bold" transform="translate(675 53)">
        <tspan x="3.487" y="7.936">5</tspan>
      </text>
      <path fill="#8CC894" d="M995 53h40v40h-40z"/>
      <text fill="#FFF" font-family="Montserrat-Bold, Montserrat" font-size="14" font-weight="bold" transform="translate(995 53)">
        <tspan x="3.487" y="7.936">5</tspan>
      </text>
      <g>
        <path fill="#5EB391" d="M835 53h40v40h-40z"/>
        <text fill="#FFF" font-family="Montserrat-Bold, Montserrat" font-size="14" font-weight="bold" transform="translate(835 53)">
          <tspan x="3.193" y="7.936">6</tspan>
        </text>
      </g>
      <g>
        <path fill="#5AAD8C" d="M955 53h40v40h-40z"/>
        <text fill="#FFF" font-family="Montserrat-Bold, Montserrat" font-size="14" font-weight="bold" transform="translate(955 53)">
          <tspan x="3.193" y="7.936">9</tspan>
        </text>
      </g>
      <g>
        <path fill="#5AAD8C" d="M1035 53h40v40h-40z"/>
        <text fill="#FFF" font-family="Montserrat-Bold, Montserrat" font-size="14" font-weight="bold" transform="translate(1035 53)">
          <tspan x="3.193" y="7.936">9</tspan>
        </text>
      </g>
      <g>
        <path fill="#5EB391" d="M795 53h40v40h-40z"/>
        <text fill="#FFF" font-family="Montserrat-Bold, Montserrat" font-size="14" font-weight="bold" transform="translate(795 53)">
          <tspan x="3.193" y="7.936">6</tspan>
        </text>
      </g>
      <g>
        <path fill="#5EB391" d="M755 53h40v40h-40z"/>
        <text fill="#FFF" font-family="Montserrat-Bold, Montserrat" font-size="14" font-weight="bold" transform="translate(755 53)">
          <tspan x="3.312" y="7.936">7</tspan>
        </text>
      </g>
      <g>
        <path fill="#5EB391" d="M715 53h40v40h-40z"/>
        <text fill="#FFF" font-family="Montserrat-Bold, Montserrat" font-size="14" font-weight="bold" transform="translate(715 53)">
          <tspan x="3.193" y="7.936">6</tspan>
        </text>
      </g>
      <g>
        <path fill="#A0CE93" d="M395 53h40v40h-40z"/>
        <text fill="#FFF" font-family="Montserrat-Bold, Montserrat" font-size="14" font-weight="bold" transform="translate(395 53)">
          <tspan x="3.522" y="7.936">2</tspan>
        </text>
      </g>
      <g>
        <path fill="#A0CE93" d="M195 53h40v40h-40z"/>
        <text fill="#FFF" font-family="Montserrat-Bold, Montserrat" font-size="14" font-weight="bold" transform="translate(195 53)">
          <tspan x="3.508" y="7.936">3</tspan>
        </text>
      </g>
      <g>
        <path fill="#A0CE93" d="M435 253h40v40h-40z"/>
        <text fill="#FFF" font-family="Montserrat-Bold, Montserrat" font-size="14" font-weight="bold" transform="translate(435 253)">
          <tspan x="3.508" y="7.936">3</tspan>
        </text>
        <path fill="#A9D194" d="M235 253h40v40h-40z"/>
        <text fill="#FFF" font-family="Montserrat-Bold, Montserrat" font-size="14" font-weight="bold" transform="translate(235 253)">
          <tspan x="4.908" y="7.936">1</tspan>
        </text>
        <path fill="#A9D194" d="M315 253h40v40h-40z"/>
        <text fill="#FFF" font-family="Montserrat-Bold, Montserrat" font-size="14" font-weight="bold" transform="translate(315 253)">
          <tspan x="4.908" y="7.936">1</tspan>
        </text>
        <path fill="#A9D194" d="M675 253h40v40h-40z"/>
        <text fill="#FFF" font-family="Montserrat-Bold, Montserrat" font-size="14" font-weight="bold" transform="translate(675 253)">
          <tspan x="4.908" y="7.936">1</tspan>
        </text>
        <path fill="#A9D194" d="M155 253h40v40h-40z"/>
        <text fill="#FFF" font-family="Montserrat-Bold, Montserrat" font-size="14" font-weight="bold" transform="translate(155 253)">
          <tspan x="4.908" y="7.936">1</tspan>
        </text>
        <path fill="#A9D194" d="M395 253h40v40h-40z"/>
        <text fill="#FFF" font-family="Montserrat-Bold, Montserrat" font-size="14" font-weight="bold" transform="translate(395 253)">
          <tspan x="3.522" y="7.936">2</tspan>
        </text>
        <path fill="#A9D194" d="M595 253h40v40h-40z"/>
        <text fill="#FFF" font-family="Montserrat-Bold, Montserrat" font-size="14" font-weight="bold" transform="translate(595 253)">
          <tspan x="3.522" y="7.936">2</tspan>
        </text>
        <path fill="#A9D194" d="M355 253h40v40h-40z"/>
        <text fill="#FFF" font-family="Montserrat-Bold, Montserrat" font-size="14" font-weight="bold" transform="translate(355 253)">
          <tspan x="3.522" y="7.936">2</tspan>
        </text>
        <path fill="#E0E5A3" d="M515 253h40v40h-40z"/>
        <text fill="#FFF" font-family="Montserrat-Bold, Montserrat" font-size="14" font-weight="bold" transform="translate(515 253)">
          <tspan x="2.899" y="7.936">0</tspan>
        </text>
        <path fill="#E0E5A3" d="M475 253h40v40h-40z"/>
        <text fill="#FFF" font-family="Montserrat-Bold, Montserrat" font-size="14" font-weight="bold" transform="translate(475 253)">
          <tspan x="2.899" y="7.936">0</tspan>
        </text>
        <path fill="#A0CE93" d="M555 253h40v40h-40z"/>
        <text fill="#FFF" font-family="Montserrat-Bold, Montserrat" font-size="14" font-weight="bold" transform="translate(555 253)">
          <tspan x="3.508" y="7.936">3</tspan>
        </text>
        <path fill="#A0CE93" d="M955 253h40v40h-40z"/>
        <text fill="#FFF" font-family="Montserrat-Bold, Montserrat" font-size="14" font-weight="bold" transform="translate(955 253)">
          <tspan x="3.508" y="7.936">3</tspan>
        </text>
        <path fill="#99CE94" d="M1075 253h40v40h-40z"/>
        <text fill="#FFF" font-family="Montserrat-Bold, Montserrat" font-size="14" font-weight="bold" transform="translate(1075 253)">
          <tspan x="2.829" y="7.936">4</tspan>
        </text>
        <g>
          <path fill="#99CE94" d="M875 253h40v40h-40z"/>
          <text fill="#FFF" font-family="Montserrat-Bold, Montserrat" font-size="14" font-weight="bold" transform="translate(875 253)">
            <tspan x="2.829" y="7.936">4</tspan>
          </text>
        </g>
        <g>
          <path fill="#8CC894" d="M635 253h40v40h-40z"/>
          <text fill="#FFF" font-family="Montserrat-Bold, Montserrat" font-size="14" font-weight="bold" transform="translate(635 253)">
            <tspan x="3.487" y="7.936">5</tspan>
          </text>
        </g>
        <g>
          <path fill="#8CC894" d="M835 253h40v40h-40z"/>
          <text fill="#FFF" font-family="Montserrat-Bold, Montserrat" font-size="14" font-weight="bold" transform="translate(835 253)">
            <tspan x="3.487" y="7.936">5</tspan>
          </text>
        </g>
        <g>
          <path fill="#8CC894" d="M915 253h40v40h-40z"/>
          <text fill="#FFF" font-family="Montserrat-Bold, Montserrat" font-size="14" font-weight="bold" transform="translate(915 253)">
            <tspan x="3.487" y="7.936">5</tspan>
          </text>
        </g>
        <g>
          <path fill="#5AAD8C" d="M1035 253h40v40h-40z"/>
          <text fill="#FFF" font-family="Montserrat-Bold, Montserrat" font-size="14" font-weight="bold" transform="translate(1035 253)">
            <tspan x="3.193" y="7.936">9</tspan>
          </text>
        </g>
        <g>
          <path fill="#5EB391" d="M995 253h40v40h-40z"/>
          <text fill="#FFF" font-family="Montserrat-Bold, Montserrat" font-size="14" font-weight="bold" transform="translate(995 253)">
            <tspan x="3.193" y="7.936">6</tspan>
          </text>
        </g>
        <g>
          <path fill="#5EB391" d="M795 253h40v40h-40z"/>
          <text fill="#FFF" font-family="Montserrat-Bold, Montserrat" font-size="14" font-weight="bold" transform="translate(795 253)">
            <tspan x="3.032" y="7.936">8</tspan>
          </text>
        </g>
        <g>
          <path fill="#5EB391" d="M755 253h40v40h-40z"/>
          <text fill="#FFF" font-family="Montserrat-Bold, Montserrat" font-size="14" font-weight="bold" transform="translate(755 253)">
            <tspan x="3.193" y="7.936">6</tspan>
          </text>
        </g>
        <g>
          <path fill="#5EB391" d="M715 253h40v40h-40z"/>
          <text fill="#FFF" font-family="Montserrat-Bold, Montserrat" font-size="14" font-weight="bold" transform="translate(715 253)">
            <tspan x="3.193" y="7.936">6</tspan>
          </text>
        </g>
        <g>
          <path fill="#A9D194" d="M195 253h40v40h-40z"/>
          <text fill="#FFF" font-family="Montserrat-Bold, Montserrat" font-size="14" font-weight="bold" transform="translate(195 253)">
            <tspan x="3.522" y="7.936">2</tspan>
          </text>
        </g>
        <g>
          <path fill="#8CC894" d="M275 253h40v40h-40z"/>
          <text fill="#FFF" font-family="Montserrat-Bold, Montserrat" font-size="14" font-weight="bold" transform="translate(275 253)">
            <tspan x="3.487" y="7.936">5</tspan>
          </text>
        </g>
      </g>
      <g>
        <path fill="#A0CE93" d="M195 213h40v40h-40z"/>
        <text fill="#FFF" font-family="Montserrat-Bold, Montserrat" font-size="14" font-weight="bold" transform="translate(195 213)">
          <tspan x="3.508" y="7.936">3</tspan>
        </text>
        <path fill="#A9D194" d="M355 213h40v40h-40z"/>
        <text fill="#FFF" font-family="Montserrat-Bold, Montserrat" font-size="14" font-weight="bold" transform="translate(355 213)">
          <tspan x="4.908" y="7.936">1</tspan>
        </text>
        <path fill="#A9D194" d="M275 213h40v40h-40z"/>
        <text fill="#FFF" font-family="Montserrat-Bold, Montserrat" font-size="14" font-weight="bold" transform="translate(275 213)">
          <tspan x="4.908" y="7.936">1</tspan>
        </text>
        <path fill="#A9D194" d="M395 213h40v40h-40z"/>
        <text fill="#FFF" font-family="Montserrat-Bold, Montserrat" font-size="14" font-weight="bold" transform="translate(395 213)">
          <tspan x="3.522" y="7.936">2</tspan>
        </text>
        <path fill="#E0E5A3" d="M315 213h40v40h-40z"/>
        <text fill="#FFF" font-family="Montserrat-Bold, Montserrat" font-size="14" font-weight="bold" transform="translate(315 213)">
          <tspan x="2.899" y="7.936">0</tspan>
        </text>
        <path fill="#A0CE93" d="M515 213h40v40h-40z"/>
        <text fill="#FFF" font-family="Montserrat-Bold, Montserrat" font-size="14" font-weight="bold" transform="translate(515 213)">
          <tspan x="3.508" y="7.936">3</tspan>
        </text>
        <path fill="#A0CE93" d="M475 213h40v40h-40z"/>
        <text fill="#FFF" font-family="Montserrat-Bold, Montserrat" font-size="14" font-weight="bold" transform="translate(475 213)">
          <tspan x="3.508" y="7.936">3</tspan>
        </text>
        <path fill="#A0CE93" d="M635 213h40v40h-40z"/>
        <text fill="#FFF" font-family="Montserrat-Bold, Montserrat" font-size="14" font-weight="bold" transform="translate(635 213)">
          <tspan x="3.508" y="7.936">3</tspan>
        </text>
        <path fill="#A0CE93" d="M595 213h40v40h-40z"/>
        <text fill="#FFF" font-family="Montserrat-Bold, Montserrat" font-size="14" font-weight="bold" transform="translate(595 213)">
          <tspan x="3.508" y="7.936">3</tspan>
        </text>
        <path fill="#99CE94" d="M875 213h40v40h-40z"/>
        <text fill="#FFF" font-family="Montserrat-Bold, Montserrat" font-size="14" font-weight="bold" transform="translate(875 213)">
          <tspan x="2.829" y="7.936">4</tspan>
        </text>
        <path fill="#A9D194" d="M915 213h40v40h-40z"/>
        <text fill="#FFF" font-family="Montserrat-Bold, Montserrat" font-size="14" font-weight="bold" transform="translate(915 213)">
          <tspan x="4.908" y="7.936">1</tspan>
        </text>
        <path fill="#A9D194" d="M1075 213h40v40h-40z"/>
        <text fill="#FFF" font-family="Montserrat-Bold, Montserrat" font-size="14" font-weight="bold" transform="translate(1075 213)">
          <tspan x="3.522" y="7.936">2</tspan>
        </text>
        <path fill="#A9D194" d="M1035 213h40v40h-40z"/>
        <text fill="#FFF" font-family="Montserrat-Bold, Montserrat" font-size="14" font-weight="bold" transform="translate(1035 213)">
          <tspan x="4.908" y="7.936">1</tspan>
        </text>
        <g>
          <path fill="#99CE94" d="M435 213h40v40h-40z"/>
          <text fill="#FFF" font-family="Montserrat-Bold, Montserrat" font-size="14" font-weight="bold" transform="translate(435 213)">
            <tspan x="2.829" y="7.936">4</tspan>
          </text>
        </g>
        <g>
          <path fill="#99CE94" d="M715 213h40v40h-40z"/>
          <text fill="#FFF" font-family="Montserrat-Bold, Montserrat" font-size="14" font-weight="bold" transform="translate(715 213)">
            <tspan x="2.829" y="7.936">4</tspan>
          </text>
        </g>
        <g>
          <path fill="#8CC894" d="M555 213h40v40h-40z"/>
          <text fill="#FFF" font-family="Montserrat-Bold, Montserrat" font-size="14" font-weight="bold" transform="translate(555 213)">
            <tspan x="3.487" y="7.936">5</tspan>
          </text>
        </g>
        <g>
          <path fill="#99CE94" d="M995 213h40v40h-40z"/>
          <text fill="#FFF" font-family="Montserrat-Bold, Montserrat" font-size="14" font-weight="bold" transform="translate(995 213)">
            <tspan x="2.829" y="7.936">4</tspan>
          </text>
        </g>
        <g>
          <path fill="#99CE94" d="M955 213h40v40h-40z"/>
          <text fill="#FFF" font-family="Montserrat-Bold, Montserrat" font-size="14" font-weight="bold" transform="translate(955 213)">
            <tspan x="2.829" y="7.936">4</tspan>
          </text>
        </g>
        <g>
          <path fill="#8CC894" d="M675 213h40v40h-40z"/>
          <text fill="#FFF" font-family="Montserrat-Bold, Montserrat" font-size="14" font-weight="bold" transform="translate(675 213)">
            <tspan x="3.487" y="7.936">5</tspan>
          </text>
        </g>
        <g>
          <path fill="#8CC894" d="M795 213h40v40h-40z"/>
          <text fill="#FFF" font-family="Montserrat-Bold, Montserrat" font-size="14" font-weight="bold" transform="translate(795 213)">
            <tspan x="3.487" y="7.936">5</tspan>
          </text>
        </g>
        <g>
          <path fill="#5EB391" d="M835 213h40v40h-40z"/>
          <text fill="#FFF" font-family="Montserrat-Bold, Montserrat" font-size="14" font-weight="bold" transform="translate(835 213)">
            <tspan x="3.032" y="7.936">8</tspan>
          </text>
        </g>
        <g>
          <path fill="#5EB391" d="M755 213h40v40h-40z"/>
          <text fill="#FFF" font-family="Montserrat-Bold, Montserrat" font-size="14" font-weight="bold" transform="translate(755 213)">
            <tspan x="3.193" y="7.936">9</tspan>
          </text>
        </g>
        <g>
          <path fill="#A9D194" d="M235 213h40v40h-40z"/>
          <text fill="#FFF" font-family="Montserrat-Bold, Montserrat" font-size="14" font-weight="bold" transform="translate(235 213)">
            <tspan x="3.522" y="7.936">2</tspan>
          </text>
        </g>
        <path fill="#8CC894" d="M155 213h40v40h-40z"/>
        <text fill="#FFF" font-family="Montserrat-Bold, Montserrat" font-size="14" font-weight="bold" transform="translate(155 213)">
          <tspan x="2.829" y="7.936">4</tspan>
        </text>
      </g>
      <g>
        <path fill="#A9D194" d="M435 293h40v40h-40z"/>
        <text fill="#FFF" font-family="Montserrat-Bold, Montserrat" font-size="14" font-weight="bold" transform="translate(435 293)">
          <tspan x="4.908" y="7.936">1</tspan>
        </text>
        <path fill="#A9D194" d="M515 293h40v40h-40z"/>
        <text fill="#FFF" font-family="Montserrat-Bold, Montserrat" font-size="14" font-weight="bold" transform="translate(515 293)">
          <tspan x="4.908" y="7.936">1</tspan>
        </text>
        <path fill="#A9D194" d="M195 293h40v40h-40z"/>
        <text fill="#FFF" font-family="Montserrat-Bold, Montserrat" font-size="14" font-weight="bold" transform="translate(195 293)">
          <tspan x="4.908" y="7.936">1</tspan>
        </text>
        <path fill="#A9D194" d="M275 293h40v40h-40z"/>
        <text fill="#FFF" font-family="Montserrat-Bold, Montserrat" font-size="14" font-weight="bold" transform="translate(275 293)">
          <tspan x="4.908" y="7.936">1</tspan>
        </text>
        <path fill="#A9D194" d="M995 293h40v40h-40z"/>
        <text fill="#FFF" font-family="Montserrat-Bold, Montserrat" font-size="14" font-weight="bold" transform="translate(995 293)">
          <tspan x="3.522" y="7.936">2</tspan>
        </text>
        <path fill="#A9D194" d="M955 293h40v40h-40z"/>
        <text fill="#FFF" font-family="Montserrat-Bold, Montserrat" font-size="14" font-weight="bold" transform="translate(955 293)">
          <tspan x="3.522" y="7.936">2</tspan>
        </text>
        <path fill="#E0E5A3" d="M555 293h40v40h-40z"/>
        <text fill="#FFF" font-family="Montserrat-Bold, Montserrat" font-size="14" font-weight="bold" transform="translate(555 293)">
          <tspan x="2.899" y="7.936">0</tspan>
        </text>
        <path fill="#A0CE93" d="M1035 293h40v40h-40z"/>
        <text fill="#FFF" font-family="Montserrat-Bold, Montserrat" font-size="14" font-weight="bold" transform="translate(1035 293)">
          <tspan x="3.508" y="7.936">3</tspan>
        </text>
        <path fill="#A0CE93" d="M595 293h40v40h-40z"/>
        <text fill="#FFF" font-family="Montserrat-Bold, Montserrat" font-size="14" font-weight="bold" transform="translate(595 293)">
          <tspan x="3.508" y="7.936">3</tspan>
        </text>
        <path fill="#99CE94" d="M1075 293h40v40h-40z"/>
        <text fill="#FFF" font-family="Montserrat-Bold, Montserrat" font-size="14" font-weight="bold" transform="translate(1075 293)">
          <tspan x="2.829" y="7.936">4</tspan>
        </text>
        <path fill="#99CE94" d="M395 293h40v40h-40z"/>
        <text fill="#FFF" font-family="Montserrat-Bold, Montserrat" font-size="14" font-weight="bold" transform="translate(395 293)">
          <tspan x="2.829" y="7.936">4</tspan>
        </text>
        <path fill="#99CE94" d="M475 293h40v40h-40z"/>
        <text fill="#FFF" font-family="Montserrat-Bold, Montserrat" font-size="14" font-weight="bold" transform="translate(475 293)">
          <tspan x="2.829" y="7.936">4</tspan>
        </text>
        <path fill="#99CE94" d="M675 293h40v40h-40z"/>
        <text fill="#FFF" font-family="Montserrat-Bold, Montserrat" font-size="14" font-weight="bold" transform="translate(675 293)">
          <tspan x="2.829" y="7.936">4</tspan>
        </text>
        <g>
          <path fill="#99CE94" d="M795 293h40v40h-40z"/>
          <text fill="#FFF" font-family="Montserrat-Bold, Montserrat" font-size="14" font-weight="bold" transform="translate(795 293)">
            <tspan x="2.829" y="7.936">4</tspan>
          </text>
        </g>
        <g>
          <path fill="#8CC894" d="M915 293h40v40h-40z"/>
          <text fill="#FFF" font-family="Montserrat-Bold, Montserrat" font-size="14" font-weight="bold" transform="translate(915 293)">
            <tspan x="3.487" y="7.936">5</tspan>
          </text>
        </g>
        <g>
          <path fill="#8CC894" d="M875 293h40v40h-40z"/>
          <text fill="#FFF" font-family="Montserrat-Bold, Montserrat" font-size="14" font-weight="bold" transform="translate(875 293)">
            <tspan x="3.487" y="7.936">5</tspan>
          </text>
        </g>
        <g>
          <path fill="#5EB391" d="M755 293h40v40h-40z"/>
          <text fill="#FFF" font-family="Montserrat-Bold, Montserrat" font-size="14" font-weight="bold" transform="translate(755 293)">
            <tspan x="3.032" y="7.936">8</tspan>
          </text>
        </g>
        <g>
          <path fill="#5EB391" d="M835 293h40v40h-40z"/>
          <text fill="#FFF" font-family="Montserrat-Bold, Montserrat" font-size="14" font-weight="bold" transform="translate(835 293)">
            <tspan x="3.312" y="7.936">7</tspan>
          </text>
        </g>
        <g>
          <path fill="#5EB391" d="M635 293h40v40h-40z"/>
          <text fill="#FFF" font-family="Montserrat-Bold, Montserrat" font-size="14" font-weight="bold" transform="translate(635 293)">
            <tspan x="3.193" y="7.936">6</tspan>
          </text>
        </g>
        <g>
          <path fill="#A9D194" d="M235 293h40v40h-40z"/>
          <text fill="#FFF" font-family="Montserrat-Bold, Montserrat" font-size="14" font-weight="bold" transform="translate(235 293)">
            <tspan x="3.522" y="7.936">2</tspan>
          </text>
        </g>
        <g>
          <path fill="#A9D194" d="M355 293h40v40h-40z"/>
          <text fill="#FFF" font-family="Montserrat-Bold, Montserrat" font-size="14" font-weight="bold" transform="translate(355 293)">
            <tspan x="3.522" y="7.936">2</tspan>
          </text>
        </g>
        <g>
          <path fill="#A9D194" d="M315 293h40v40h-40z"/>
          <text fill="#FFF" font-family="Montserrat-Bold, Montserrat" font-size="14" font-weight="bold" transform="translate(315 293)">
            <tspan x="3.522" y="7.936">2</tspan>
          </text>
        </g>
        <g>
          <path fill="#A9D194" d="M715 293h40v40h-40z"/>
          <text fill="#FFF" font-family="Montserrat-Bold, Montserrat" font-size="14" font-weight="bold" transform="translate(715 293)">
            <tspan x="4.908" y="7.936">1</tspan>
          </text>
        </g>
        <path fill="#8CC894" d="M155 293h40v40h-40z"/>
        <text fill="#FFF" font-family="Montserrat-Bold, Montserrat" font-size="14" font-weight="bold" transform="translate(155 293)">
          <tspan x="3.487" y="7.936">5</tspan>
        </text>
      </g>
      <g>
        <path fill="#A0CE93" d="M155 173h40v40h-40z"/>
        <text fill="#FFF" font-family="Montserrat-Bold, Montserrat" font-size="14" font-weight="bold" transform="translate(155 173)">
          <tspan x="3.508" y="7.936">3</tspan>
        </text>
        <path fill="#A9D194" d="M315 173h40v40h-40z"/>
        <text fill="#FFF" font-family="Montserrat-Bold, Montserrat" font-size="14" font-weight="bold" transform="translate(315 173)">
          <tspan x="3.522" y="7.936">2</tspan>
        </text>
        <path fill="#A9D194" d="M275 173h40v40h-40z"/>
        <text fill="#FFF" font-family="Montserrat-Bold, Montserrat" font-size="14" font-weight="bold" transform="translate(275 173)">
          <tspan x="3.522" y="7.936">2</tspan>
        </text>
        <path fill="#A9D194" d="M355 173h40v40h-40z"/>
        <text fill="#FFF" font-family="Montserrat-Bold, Montserrat" font-size="14" font-weight="bold" transform="translate(355 173)">
          <tspan x="3.522" y="7.936">2</tspan>
        </text>
        <path fill="#E0E5A3" d="M395 173h40v40h-40z"/>
        <text fill="#FFF" font-family="Montserrat-Bold, Montserrat" font-size="14" font-weight="bold" transform="translate(395 173)">
          <tspan x="2.899" y="7.936">0</tspan>
        </text>
        <path fill="#A0CE93" d="M475 173h40v40h-40z"/>
        <text fill="#FFF" font-family="Montserrat-Bold, Montserrat" font-size="14" font-weight="bold" transform="translate(475 173)">
          <tspan x="3.508" y="7.936">3</tspan>
        </text>
        <path fill="#A0CE93" d="M595 173h40v40h-40z"/>
        <text fill="#FFF" font-family="Montserrat-Bold, Montserrat" font-size="14" font-weight="bold" transform="translate(595 173)">
          <tspan x="3.508" y="7.936">3</tspan>
        </text>
        <path fill="#A0CE93" d="M675 173h40v40h-40z"/>
        <text fill="#FFF" font-family="Montserrat-Bold, Montserrat" font-size="14" font-weight="bold" transform="translate(675 173)">
          <tspan x="3.508" y="7.936">3</tspan>
        </text>
        <path fill="#99CE94" d="M715 173h40v40h-40z"/>
        <text fill="#FFF" font-family="Montserrat-Bold, Montserrat" font-size="14" font-weight="bold" transform="translate(715 173)">
          <tspan x="2.829" y="7.936">4</tspan>
        </text>
        <path fill="#A9D194" d="M435 173h40v40h-40z"/>
        <text fill="#FFF" font-family="Montserrat-Bold, Montserrat" font-size="14" font-weight="bold" transform="translate(435 173)">
          <tspan x="3.522" y="7.936">2</tspan>
        </text>
        <path fill="#A9D194" d="M875 173h40v40h-40z"/>
        <text fill="#FFF" font-family="Montserrat-Bold, Montserrat" font-size="14" font-weight="bold" transform="translate(875 173)">
          <tspan x="4.908" y="7.936">1</tspan>
        </text>
        <path fill="#A9D194" d="M1035 173h40v40h-40z"/>
        <text fill="#FFF" font-family="Montserrat-Bold, Montserrat" font-size="14" font-weight="bold" transform="translate(1035 173)">
          <tspan x="3.522" y="7.936">2</tspan>
        </text>
        <path fill="#99CE94" d="M515 173h40v40h-40z"/>
        <text fill="#FFF" font-family="Montserrat-Bold, Montserrat" font-size="14" font-weight="bold" transform="translate(515 173)">
          <tspan x="2.829" y="7.936">4</tspan>
        </text>
        <g>
          <path fill="#99CE94" d="M635 173h40v40h-40z"/>
          <text fill="#FFF" font-family="Montserrat-Bold, Montserrat" font-size="14" font-weight="bold" transform="translate(635 173)">
            <tspan x="2.829" y="7.936">4</tspan>
          </text>
        </g>
        <g>
          <path fill="#8CC894" d="M555 173h40v40h-40z"/>
          <text fill="#FFF" font-family="Montserrat-Bold, Montserrat" font-size="14" font-weight="bold" transform="translate(555 173)">
            <tspan x="3.487" y="7.936">5</tspan>
          </text>
        </g>
        <g>
          <path fill="#5EB391" d="M1075 173h40v40h-40z"/>
          <text fill="#FFF" font-family="Montserrat-Bold, Montserrat" font-size="14" font-weight="bold" transform="translate(1075 173)">
            <tspan x="3.193" y="7.936">6</tspan>
          </text>
        </g>
        <g>
          <path fill="#99CE94" d="M955 173h40v40h-40z"/>
          <text fill="#FFF" font-family="Montserrat-Bold, Montserrat" font-size="14" font-weight="bold" transform="translate(955 173)">
            <tspan x="3.508" y="7.936">3</tspan>
          </text>
        </g>
        <g>
          <path fill="#99CE94" d="M915 173h40v40h-40z"/>
          <text fill="#FFF" font-family="Montserrat-Bold, Montserrat" font-size="14" font-weight="bold" transform="translate(915 173)">
            <tspan x="2.829" y="7.936">4</tspan>
          </text>
        </g>
        <g>
          <path fill="#8CC894" d="M795 173h40v40h-40z"/>
          <text fill="#FFF" font-family="Montserrat-Bold, Montserrat" font-size="14" font-weight="bold" transform="translate(795 173)">
            <tspan x="3.487" y="7.936">5</tspan>
          </text>
        </g>
        <g>
          <path fill="#5EB391" d="M835 173h40v40h-40z"/>
          <text fill="#FFF" font-family="Montserrat-Bold, Montserrat" font-size="14" font-weight="bold" transform="translate(835 173)">
            <tspan x="3.032" y="7.936">8</tspan>
          </text>
        </g>
        <g>
          <path fill="#5EB391" d="M755 173h40v40h-40z"/>
          <text fill="#FFF" font-family="Montserrat-Bold, Montserrat" font-size="14" font-weight="bold" transform="translate(755 173)">
            <tspan x="3.312" y="7.936">7</tspan>
          </text>
        </g>
        <g>
          <path fill="#5EB391" d="M995 173h40v40h-40z"/>
          <text fill="#FFF" font-family="Montserrat-Bold, Montserrat" font-size="14" font-weight="bold" transform="translate(995 173)">
            <tspan x="3.193" y="7.936">6</tspan>
          </text>
        </g>
        <g>
          <path fill="#A0CE93" d="M235 173h40v40h-40z"/>
          <text fill="#FFF" font-family="Montserrat-Bold, Montserrat" font-size="14" font-weight="bold" transform="translate(235 173)">
            <tspan x="3.508" y="7.936">3</tspan>
          </text>
        </g>
        <g>
          <path fill="#8CC894" d="M195 173h40v40h-40z"/>
          <text fill="#FFF" font-family="Montserrat-Bold, Montserrat" font-size="14" font-weight="bold" transform="translate(195 173)">
            <tspan x="3.487" y="7.936">5</tspan>
          </text>
        </g>
      </g>
      <g>
        <path fill="#A0CE93" d="M155 133h40v40h-40z"/>
        <text fill="#FFF" font-family="Montserrat-Bold, Montserrat" font-size="14" font-weight="bold" transform="translate(155 133)">
          <tspan x="3.508" y="7.936">3</tspan>
        </text>
        <path fill="#A9D194" d="M315 133h40v40h-40z"/>
        <text fill="#FFF" font-family="Montserrat-Bold, Montserrat" font-size="14" font-weight="bold" transform="translate(315 133)">
          <tspan x="3.522" y="7.936">2</tspan>
        </text>
        <path fill="#A9D194" d="M275 133h40v40h-40z"/>
        <text fill="#FFF" font-family="Montserrat-Bold, Montserrat" font-size="14" font-weight="bold" transform="translate(275 133)">
          <tspan x="4.908" y="7.936">1</tspan>
        </text>
        <path fill="#A9D194" d="M355 133h40v40h-40z"/>
        <text fill="#FFF" font-family="Montserrat-Bold, Montserrat" font-size="14" font-weight="bold" transform="translate(355 133)">
          <tspan x="3.522" y="7.936">2</tspan>
        </text>
        <path fill="#A9D194" d="M395 133h40v40h-40z"/>
        <text fill="#FFF" font-family="Montserrat-Bold, Montserrat" font-size="14" font-weight="bold" transform="translate(395 133)">
          <tspan x="3.522" y="7.936">2</tspan>
        </text>
        <path fill="#A0CE93" d="M475 133h40v40h-40z"/>
        <text fill="#FFF" font-family="Montserrat-Bold, Montserrat" font-size="14" font-weight="bold" transform="translate(475 133)">
          <tspan x="3.508" y="7.936">3</tspan>
        </text>
        <path fill="#99CE94" d="M675 133h40v40h-40z"/>
        <text fill="#FFF" font-family="Montserrat-Bold, Montserrat" font-size="14" font-weight="bold" transform="translate(675 133)">
          <tspan x="2.829" y="7.936">4</tspan>
        </text>
        <path fill="#A9D194" d="M435 133h40v40h-40z"/>
        <text fill="#FFF" font-family="Montserrat-Bold, Montserrat" font-size="14" font-weight="bold" transform="translate(435 133)">
          <tspan x="3.522" y="7.936">2</tspan>
        </text>
        <path fill="#A9D194" d="M595 133h40v40h-40z"/>
        <text fill="#FFF" font-family="Montserrat-Bold, Montserrat" font-size="14" font-weight="bold" transform="translate(595 133)">
          <tspan x="3.522" y="7.936">2</tspan>
        </text>
        <path fill="#A9D194" d="M555 133h40v40h-40z"/>
        <text fill="#FFF" font-family="Montserrat-Bold, Montserrat" font-size="14" font-weight="bold" transform="translate(555 133)">
          <tspan x="3.522" y="7.936">2</tspan>
        </text>
        <path fill="#A9D194" d="M1075 133h40v40h-40z"/>
        <text fill="#FFF" font-family="Montserrat-Bold, Montserrat" font-size="14" font-weight="bold" transform="translate(1075 133)">
          <tspan x="3.522" y="7.936">2</tspan>
        </text>
        <path fill="#99CE94" d="M515 133h40v40h-40z"/>
        <text fill="#FFF" font-family="Montserrat-Bold, Montserrat" font-size="14" font-weight="bold" transform="translate(515 133)">
          <tspan x="2.829" y="7.936">4</tspan>
        </text>
        <path fill="#8CC894" d="M635 133h40v40h-40z"/>
        <text fill="#FFF" font-family="Montserrat-Bold, Montserrat" font-size="14" font-weight="bold" transform="translate(635 133)">
          <tspan x="3.487" y="7.936">5</tspan>
        </text>
        <g>
          <path fill="#8CC894" d="M875 133h40v40h-40z"/>
          <text fill="#FFF" font-family="Montserrat-Bold, Montserrat" font-size="14" font-weight="bold" transform="translate(875 133)">
            <tspan x="3.487" y="7.936">5</tspan>
          </text>
        </g>
        <g>
          <path fill="#99CE94" d="M1035 133h40v40h-40z"/>
          <text fill="#FFF" font-family="Montserrat-Bold, Montserrat" font-size="14" font-weight="bold" transform="translate(1035 133)">
            <tspan x="2.829" y="7.936">4</tspan>
          </text>
        </g>
        <g>
          <path fill="#99CE94" d="M995 133h40v40h-40z"/>
          <text fill="#FFF" font-family="Montserrat-Bold, Montserrat" font-size="14" font-weight="bold" transform="translate(995 133)">
            <tspan x="2.829" y="7.936">4</tspan>
          </text>
        </g>
        <g>
          <path fill="#99CE94" d="M955 133h40v40h-40z"/>
          <text fill="#FFF" font-family="Montserrat-Bold, Montserrat" font-size="14" font-weight="bold" transform="translate(955 133)">
            <tspan x="2.829" y="7.936">4</tspan>
          </text>
        </g>
        <g>
          <path fill="#8CC894" d="M835 133h40v40h-40z"/>
          <text fill="#FFF" font-family="Montserrat-Bold, Montserrat" font-size="14" font-weight="bold" transform="translate(835 133)">
            <tspan x="3.487" y="7.936">5</tspan>
          </text>
        </g>
        <g>
          <path fill="#5EB391" d="M795 133h40v40h-40z"/>
          <text fill="#FFF" font-family="Montserrat-Bold, Montserrat" font-size="14" font-weight="bold" transform="translate(795 133)">
            <tspan x="3.193" y="7.936">6</tspan>
          </text>
        </g>
        <g>
          <path fill="#5EB391" d="M755 133h40v40h-40z"/>
          <text fill="#FFF" font-family="Montserrat-Bold, Montserrat" font-size="14" font-weight="bold" transform="translate(755 133)">
            <tspan x="3.193" y="7.936">6</tspan>
          </text>
        </g>
        <g>
          <path fill="#5EB391" d="M715 133h40v40h-40z"/>
          <text fill="#FFF" font-family="Montserrat-Bold, Montserrat" font-size="14" font-weight="bold" transform="translate(715 133)">
            <tspan x="3.193" y="7.936">6</tspan>
          </text>
        </g>
        <g>
          <path fill="#5EB391" d="M915 133h40v40h-40z"/>
          <text fill="#FFF" font-family="Montserrat-Bold, Montserrat" font-size="14" font-weight="bold" transform="translate(915 133)">
            <tspan x="3.312" y="7.936">7</tspan>
          </text>
        </g>
        <g>
          <path fill="#A9D194" d="M235 133h40v40h-40z"/>
          <text fill="#FFF" font-family="Montserrat-Bold, Montserrat" font-size="14" font-weight="bold" transform="translate(235 133)">
            <tspan x="3.522" y="7.936">2</tspan>
          </text>
        </g>
        <g>
          <path fill="#A9D194" d="M195 133h40v40h-40z"/>
          <text fill="#FFF" font-family="Montserrat-Bold, Montserrat" font-size="14" font-weight="bold" transform="translate(195 133)">
            <tspan x="4.908" y="7.936">1</tspan>
          </text>
        </g>
      </g>
      <g>
        <path fill="#A9D194" d="M155 93h40v40h-40z"/>
        <text fill="#FFF" font-family="Montserrat-Bold, Montserrat" font-size="14" font-weight="bold" transform="translate(155 93)">
          <tspan x="3.522" y="7.936">2</tspan>
        </text>
        <path fill="#5EB391" d="M235 93h40v40h-40z"/>
        <text fill="#FFF" font-family="Montserrat-Bold, Montserrat" font-size="14" font-weight="bold" transform="translate(235 93)">
          <tspan x="3.193" y="7.936">6</tspan>
        </text>
        <path fill="#A9D194" d="M275 93h40v40h-40z"/>
        <text fill="#FFF" font-family="Montserrat-Bold, Montserrat" font-size="14" font-weight="bold" transform="translate(275 93)">
          <tspan x="3.522" y="7.936">2</tspan>
        </text>
        <path fill="#A9D194" d="M355 93h40v40h-40z"/>
        <text fill="#FFF" font-family="Montserrat-Bold, Montserrat" font-size="14" font-weight="bold" transform="translate(355 93)">
          <tspan x="3.522" y="7.936">2</tspan>
        </text>
        <path fill="#A9D194" d="M395 93h40v40h-40z"/>
        <text fill="#FFF" font-family="Montserrat-Bold, Montserrat" font-size="14" font-weight="bold" transform="translate(395 93)">
          <tspan x="3.522" y="7.936">2</tspan>
        </text>
        <path fill="#A9D194" d="M475 93h40v40h-40z"/>
        <text fill="#FFF" font-family="Montserrat-Bold, Montserrat" font-size="14" font-weight="bold" transform="translate(475 93)">
          <tspan x="4.908" y="7.936">1</tspan>
        </text>
        <path fill="#A9D194" d="M435 93h40v40h-40z"/>
        <text fill="#FFF" font-family="Montserrat-Bold, Montserrat" font-size="14" font-weight="bold" transform="translate(435 93)">
          <tspan x="4.908" y="7.936">1</tspan>
        </text>
        <path fill="#A9D194" d="M995 93h40v40h-40z"/>
        <text fill="#FFF" font-family="Montserrat-Bold, Montserrat" font-size="14" font-weight="bold" transform="translate(995 93)">
          <tspan x="3.522" y="7.936">2</tspan>
        </text>
        <path fill="#A0CE93" d="M955 93h40v40h-40z"/>
        <text fill="#FFF" font-family="Montserrat-Bold, Montserrat" font-size="14" font-weight="bold" transform="translate(955 93)">
          <tspan x="3.508" y="7.936">3</tspan>
        </text>
        <path fill="#A0CE93" d="M1075 93h40v40h-40z"/>
        <text fill="#FFF" font-family="Montserrat-Bold, Montserrat" font-size="14" font-weight="bold" transform="translate(1075 93)">
          <tspan x="3.508" y="7.936">3</tspan>
        </text>
        <path fill="#A0CE93" d="M1035 93h40v40h-40z"/>
        <text fill="#FFF" font-family="Montserrat-Bold, Montserrat" font-size="14" font-weight="bold" transform="translate(1035 93)">
          <tspan x="3.508" y="7.936">3</tspan>
        </text>
        <path fill="#A9D194" d="M835 93h40v40h-40z"/>
        <text fill="#FFF" font-family="Montserrat-Bold, Montserrat" font-size="14" font-weight="bold" transform="translate(835 93)">
          <tspan x="4.908" y="7.936">1</tspan>
        </text>
        <path fill="#3984A3" d="M795 93h40v40h-40z"/>
        <text fill="#FFF" font-family="Montserrat-Bold, Montserrat" font-size="14" font-weight="bold" transform="translate(795 93)">
          <tspan x="2.164" y="7.936">11</tspan>
        </text>
        <g>
          <path fill="#A0CE93" d="M315 93h40v40h-40z"/>
          <text fill="#FFF" font-family="Montserrat-Bold, Montserrat" font-size="14" font-weight="bold" transform="translate(315 93)">
            <tspan x="3.508" y="7.936">3</tspan>
          </text>
        </g>
        <g>
          <path fill="#99CE94" d="M515 93h40v40h-40z"/>
          <text fill="#FFF" font-family="Montserrat-Bold, Montserrat" font-size="14" font-weight="bold" transform="translate(515 93)">
            <tspan x="3.508" y="7.936">3</tspan>
          </text>
        </g>
        <g>
          <path fill="#99CE94" d="M555 93h40v40h-40z"/>
          <text fill="#FFF" font-family="Montserrat-Bold, Montserrat" font-size="14" font-weight="bold" transform="translate(555 93)">
            <tspan x="2.829" y="7.936">4</tspan>
          </text>
        </g>
        <g>
          <path fill="#8CC894" d="M675 93h40v40h-40z"/>
          <text fill="#FFF" font-family="Montserrat-Bold, Montserrat" font-size="14" font-weight="bold" transform="translate(675 93)">
            <tspan x="3.487" y="7.936">5</tspan>
          </text>
        </g>
        <g>
          <path fill="#8CC894" d="M875 93h40v40h-40z"/>
          <text fill="#FFF" font-family="Montserrat-Bold, Montserrat" font-size="14" font-weight="bold" transform="translate(875 93)">
            <tspan x="3.487" y="7.936">5</tspan>
          </text>
        </g>
        <g>
          <path fill="#5EB391" d="M755 93h40v40h-40z"/>
          <text fill="#FFF" font-family="Montserrat-Bold, Montserrat" font-size="14" font-weight="bold" transform="translate(755 93)">
            <tspan x="3.193" y="7.936">6</tspan>
          </text>
        </g>
        <g>
          <path fill="#5AAD8C" d="M715 93h40v40h-40z"/>
          <text fill="#FFF" font-family="Montserrat-Bold, Montserrat" font-size="14" font-weight="bold" transform="translate(715 93)">
            <tspan x="3.193" y="7.936">9</tspan>
          </text>
        </g>
        <g>
          <path fill="#5EB391" d="M635 93h40v40h-40z"/>
          <text fill="#FFF" font-family="Montserrat-Bold, Montserrat" font-size="14" font-weight="bold" transform="translate(635 93)">
            <tspan x="3.193" y="7.936">6</tspan>
          </text>
        </g>
        <g>
          <path fill="#5EB391" d="M915 93h40v40h-40z"/>
          <text fill="#FFF" font-family="Montserrat-Bold, Montserrat" font-size="14" font-weight="bold" transform="translate(915 93)">
            <tspan x="3.193" y="7.936">6</tspan>
          </text>
        </g>
        <g>
          <path fill="#5EB391" d="M595 93h40v40h-40z"/>
          <text fill="#FFF" font-family="Montserrat-Bold, Montserrat" font-size="14" font-weight="bold" transform="translate(595 93)">
            <tspan x="3.193" y="7.936">6</tspan>
          </text>
        </g>
        <g>
          <path fill="#A9D194" d="M195 93h40v40h-40z"/>
          <text fill="#FFF" font-family="Montserrat-Bold, Montserrat" font-size="14" font-weight="bold" transform="translate(195 93)">
            <tspan x="4.908" y="7.936">1</tspan>
          </text>
        </g>
      </g>
    </g>
  </g>
</svg>